<svg width="103" height="19" viewBox="0 0 103 19" fill="none" xmlns="http://www.w3.org/2000/svg">
<path d="M0.204 18V1.08H2.964L11.412 11.856V1.08H14.868V18H12.132L3.66 7.2V18H0.204ZM18.1303 12.984V10.128H25.5463V12.984H18.1303ZM34.4239 18.264C33.0959 18.264 31.8399 18.096 30.6559 17.76C29.4879 17.424 28.5119 16.968 27.7279 16.392L28.8079 13.464C29.5599 13.992 30.4159 14.408 31.3759 14.712C32.3519 15.016 33.3679 15.168 34.4239 15.168C35.5759 15.168 36.3999 14.992 36.8959 14.64C37.4079 14.272 37.6639 13.816 37.6639 13.272C37.6639 12.808 37.4879 12.44 37.1359 12.168C36.7839 11.896 36.1679 11.664 35.2879 11.472L32.5759 10.896C29.5519 10.256 28.0399 8.688 28.0399 6.192C28.0399 5.12 28.3279 4.184 28.9039 3.384C29.4799 2.568 30.2799 1.936 31.3039 1.488C32.3439 1.04 33.5439 0.816 34.9039 0.816C36.0719 0.816 37.1679 0.983999 38.1919 1.32C39.2159 1.656 40.0639 2.128 40.7359 2.736L39.6559 5.472C38.3439 4.432 36.7519 3.912 34.8799 3.912C33.8719 3.912 33.0879 4.112 32.5279 4.512C31.9839 4.896 31.7119 5.4 31.7119 6.024C31.7119 6.488 31.8799 6.864 32.2159 7.152C32.5519 7.44 33.1359 7.672 33.9679 7.848L36.6799 8.424C39.7839 9.096 41.3359 10.616 41.3359 12.984C41.3359 14.04 41.0479 14.968 40.4719 15.768C39.9119 16.552 39.1119 17.168 38.0719 17.616C37.0479 18.048 35.8319 18.264 34.4239 18.264ZM49.5589 18.264C48.1669 18.264 46.9669 18.016 45.9589 17.52C44.9669 17.008 44.1989 16.296 43.6549 15.384C43.1269 14.456 42.8629 13.368 42.8629 12.12C42.8629 10.904 43.1189 9.84 43.6309 8.928C44.1589 8 44.8709 7.28 45.7669 6.768C46.6789 6.24 47.7269 5.976 48.9109 5.976C50.6229 5.976 51.9829 6.52 52.9909 7.608C53.9989 8.68 54.5029 10.136 54.5029 11.976V12.888H46.3189C46.4469 13.816 46.7829 14.496 47.3269 14.928C47.8869 15.344 48.6549 15.552 49.6309 15.552C50.2709 15.552 50.9189 15.456 51.5749 15.264C52.2309 15.072 52.8229 14.776 53.3509 14.376L54.3109 16.8C53.7189 17.248 52.9909 17.608 52.1269 17.88C51.2789 18.136 50.4229 18.264 49.5589 18.264ZM49.0549 8.376C48.2869 8.376 47.6629 8.608 47.1829 9.072C46.7189 9.536 46.4309 10.184 46.3189 11.016H51.5029C51.4069 9.256 50.5909 8.376 49.0549 8.376ZM62.3468 18.264C61.0668 18.264 59.9468 18.016 58.9868 17.52C58.0428 17.008 57.3148 16.288 56.8027 15.36C56.2908 14.432 56.0348 13.336 56.0348 12.072C56.0348 10.808 56.2908 9.72 56.8027 8.808C57.3148 7.896 58.0428 7.2 58.9868 6.72C59.9468 6.224 61.0668 5.976 62.3468 5.976C63.0988 5.976 63.8588 6.088 64.6268 6.312C65.3948 6.536 66.0188 6.856 66.4988 7.272L65.4908 9.768C65.0908 9.448 64.6428 9.2 64.1468 9.024C63.6508 8.832 63.1708 8.736 62.7068 8.736C61.7628 8.736 61.0268 9.032 60.4988 9.624C59.9868 10.2 59.7308 11.024 59.7308 12.096C59.7308 13.152 59.9868 13.984 60.4988 14.592C61.0268 15.184 61.7628 15.48 62.7068 15.48C63.1548 15.48 63.6268 15.392 64.1228 15.216C64.6348 15.04 65.0908 14.784 65.4908 14.448L66.4988 16.944C66.0188 17.36 65.3948 17.688 64.6268 17.928C63.8588 18.152 63.0988 18.264 62.3468 18.264ZM72.4157 18.264C70.9117 18.264 69.7997 17.848 69.0797 17.016C68.3757 16.184 68.0237 14.936 68.0237 13.272V6.216H71.6477V13.368C71.6477 14.76 72.2477 15.456 73.4477 15.456C74.1357 15.456 74.6957 15.216 75.1277 14.736C75.5757 14.24 75.7997 13.592 75.7997 12.792V6.216H79.4237V18H75.8957V16.392C75.1117 17.64 73.9517 18.264 72.4157 18.264ZM82.2279 18V6.216H85.7799V8.256C86.3399 6.88 87.5399 6.12 89.3799 5.976L90.4359 5.904L90.6519 8.952L88.6119 9.168C86.8199 9.344 85.9239 10.256 85.9239 11.904V18H82.2279ZM98.0276 18.264C96.6356 18.264 95.4356 18.016 94.4276 17.52C93.4356 17.008 92.6676 16.296 92.1236 15.384C91.5956 14.456 91.3316 13.368 91.3316 12.12C91.3316 10.904 91.5876 9.84 92.0996 8.928C92.6276 8 93.3396 7.28 94.2356 6.768C95.1476 6.24 96.1956 5.976 97.3796 5.976C99.0916 5.976 100.452 6.52 101.46 7.608C102.468 8.68 102.972 10.136 102.972 11.976V12.888H94.7876C94.9156 13.816 95.2516 14.496 95.7956 14.928C96.3556 15.344 97.1236 15.552 98.0996 15.552C98.7396 15.552 99.3876 15.456 100.044 15.264C100.7 15.072 101.292 14.776 101.82 14.376L102.78 16.8C102.188 17.248 101.46 17.608 100.596 17.88C99.7476 18.136 98.8916 18.264 98.0276 18.264ZM97.5236 8.376C96.7556 8.376 96.1316 8.608 95.6516 9.072C95.1876 9.536 94.8996 10.184 94.7876 11.016H99.9716C99.8756 9.256 99.0596 8.376 97.5236 8.376Z" fill="#053688"/>
</svg>
