<svg width="61" height="61" viewBox="0 0 61 61" fill="none" xmlns="http://www.w3.org/2000/svg">
<path opacity="0.3" fill-rule="evenodd" clip-rule="evenodd" d="M0.333984 30.4648V37.4648C0.333984 50.1674 10.6314 60.4648 23.334 60.4648H30.334H37.334C50.0365 60.4648 60.334 50.1674 60.334 37.4648V30.4648V23.4648C60.334 10.7623 50.0365 0.464844 37.334 0.464844H30.334H23.334C10.6314 0.464844 0.333984 10.7623 0.333984 23.4648V30.4648Z" fill="#FF9066"/>
<path opacity="0.78" fill-rule="evenodd" clip-rule="evenodd" d="M28.9659 24.2742C28.9859 24.0137 29.2031 23.8125 29.4644 23.8125H29.8822C30.1391 23.8125 30.3542 24.0071 30.3798 24.2627L31.0014 30.4792L35.4161 33.0019C35.5719 33.0909 35.6681 33.2566 35.6681 33.436V33.8245C35.6681 34.1542 35.3546 34.3937 35.0365 34.3069L28.7334 32.5879C28.502 32.5248 28.348 32.3063 28.3664 32.0672L28.9659 24.2742Z" fill="#FF9066"/>
<path opacity="0.901274" fill-rule="evenodd" clip-rule="evenodd" d="M23.0557 15.4494C22.7916 15.1347 22.2817 15.2552 22.1864 15.6548L20.5529 22.503C20.4752 22.8286 20.7333 23.1371 21.0675 23.1182L28.1123 22.7189C28.5232 22.6957 28.7316 22.2136 28.467 21.8984L26.6656 19.7515C27.8305 19.3535 29.0657 19.1456 30.334 19.1456C36.5932 19.1456 41.6673 24.2197 41.6673 30.4789C41.6673 36.7381 36.5932 41.8122 30.334 41.8122C24.0748 41.8122 19.0007 36.7381 19.0007 30.4789C19.0007 29.4281 19.1429 28.399 19.4204 27.4098L16.8528 26.6896C16.5148 27.8948 16.334 29.1657 16.334 30.4789C16.334 38.2109 22.602 44.4789 30.334 44.4789C38.066 44.4789 44.334 38.2109 44.334 30.4789C44.334 22.7469 38.066 16.4789 30.334 16.4789C28.3891 16.4789 26.5369 16.8755 24.8537 17.5922L23.0557 15.4494Z" fill="#FF9066"/>
</svg>
