<svg width="12" height="10" viewBox="0 0 17 16" fill="none"
    xmlns="http://www.w3.org/2000/svg">
    <path fill-rule="evenodd" clip-rule="evenodd" d="M15.2564 3.61023C15.3197 3.70636 15.348 3.82142 15.3363 3.93595C15.3246 4.05049 15.2738 4.15749 15.1924 4.23889L9.06372 10.3669C9.00102 10.4296 8.9228 10.4744 8.83705 10.4969L6.28439 11.1636C6.20001 11.1856 6.11134 11.1851 6.02718 11.1623C5.94303 11.1394 5.86631 11.095 5.80465 11.0333C5.74299 10.9716 5.69853 10.8949 5.67567 10.8108C5.65282 10.7266 5.65238 10.6379 5.67439 10.5536L6.34105 8.00156C6.36099 7.92513 6.39765 7.85409 6.44839 7.79356L12.5997 1.64623C12.6935 1.55259 12.8206 1.5 12.9531 1.5C13.0856 1.5 13.2126 1.55259 13.3064 1.64623L15.1924 3.53156C15.2157 3.55612 15.2371 3.58242 15.2564 3.61023ZM14.1317 3.88489L12.9531 2.70689L7.27439 8.38556L6.85772 9.98089L8.45305 9.56423L14.1317 3.88489Z" fill="#3D42DF" fill-opacity="0.3"/>
    <path d="M14.3883 11.7447C14.5705 10.1874 14.6287 8.61799 14.5623 7.0514C14.5607 7.01448 14.5668 6.97764 14.5803 6.94321C14.5937 6.90878 14.6141 6.87752 14.6403 6.8514L15.2963 6.19541C15.3142 6.17738 15.337 6.16491 15.3618 6.1595C15.3866 6.15409 15.4125 6.15597 15.4363 6.16491C15.4601 6.17386 15.4808 6.18948 15.496 6.20991C15.5111 6.23034 15.52 6.2547 15.5216 6.28007C15.6447 8.1409 15.5979 10.0091 15.3816 11.8614C15.2243 13.2094 14.1416 14.2661 12.7996 14.4161C10.4698 14.6739 8.11872 14.6739 5.78895 14.4161C4.44761 14.2661 3.36428 13.2094 3.20695 11.8614C2.93102 9.49832 2.93102 7.11116 3.20695 4.74807C3.36428 3.40007 4.44695 2.34341 5.78895 2.19341C7.55725 1.9981 9.33875 1.95061 11.1149 2.05141C11.1404 2.05323 11.1647 2.0623 11.1852 2.07755C11.2056 2.09279 11.2212 2.11357 11.2302 2.13742C11.2392 2.16127 11.2411 2.18719 11.2358 2.21212C11.2305 2.23705 11.2182 2.25994 11.2003 2.27807L10.5383 2.93941C10.5124 2.9653 10.4815 2.98559 10.4474 2.99901C10.4133 3.01243 10.3769 3.01869 10.3403 3.01741C8.85812 2.96664 7.37422 3.02345 5.90028 3.18741C5.46957 3.23508 5.06751 3.42655 4.75905 3.73091C4.45058 4.03526 4.25373 4.43471 4.20028 4.86474C3.93285 7.15028 3.93285 9.4592 4.20028 11.7447C4.25373 12.1748 4.45058 12.5742 4.75905 12.8786C5.06751 13.1829 5.46957 13.3744 5.90028 13.4221C8.13695 13.6721 10.4516 13.6721 12.6889 13.4221C13.1197 13.3744 13.5217 13.1829 13.8302 12.8786C14.1386 12.5742 14.3348 12.1748 14.3883 11.7447Z" fill="#3D42DF" fill-opacity="0.3"/>
</svg>
