<svg width="24" height="25" viewBox="0 0 24 25" fill="none" xmlns="http://www.w3.org/2000/svg">
<path d="M18.75 21.75C19.413 21.75 20.0489 21.4866 20.5178 21.0178C20.9866 20.5489 21.25 19.913 21.25 19.25V5.75C21.25 5.08696 20.9866 4.45107 20.5178 3.98223C20.0489 3.51339 19.413 3.25 18.75 3.25C18.087 3.25 17.4511 3.51339 16.9822 3.98223C16.5134 4.45107 16.25 5.08696 16.25 5.75V19.25C16.25 19.913 16.5134 20.5489 16.9822 21.0178C17.4511 21.4866 18.087 21.75 18.75 21.75ZM12 21.75C12.663 21.75 13.2989 21.4866 13.7678 21.0178C14.2366 20.5489 14.5 19.913 14.5 19.25V11.25C14.5 10.587 14.2366 9.95107 13.7678 9.48223C13.2989 9.01339 12.663 8.75 12 8.75C11.337 8.75 10.7011 9.01339 10.2322 9.48223C9.76339 9.95107 9.5 10.587 9.5 11.25V19.25C9.5 19.913 9.76339 20.5489 10.2322 21.0178C10.7011 21.4866 11.337 21.75 12 21.75Z" stroke="black" stroke-width="0.5" stroke-linecap="round" stroke-linejoin="round"/>
<path d="M5.25 21.75C6.63071 21.75 7.75 20.6307 7.75 19.25C7.75 17.8693 6.63071 16.75 5.25 16.75C3.86929 16.75 2.75 17.8693 2.75 19.25C2.75 20.6307 3.86929 21.75 5.25 21.75Z" stroke="black" stroke-width="0.5" stroke-linecap="round" stroke-linejoin="round"/>
</svg>
