<svg width="24" height="25" viewBox="0 0 24 25" fill="none" xmlns="http://www.w3.org/2000/svg">
<path d="M21 12.5V17H3V5H12V3.5H3C2.60218 3.5 2.22064 3.65804 1.93934 3.93934C1.65804 4.22064 1.5 4.60218 1.5 5V17C1.5 17.3978 1.65804 17.7794 1.93934 18.0607C2.22064 18.342 2.60218 18.5 3 18.5H9V21.5H6V23H18V21.5H15V18.5H21C21.3978 18.5 21.7794 18.342 22.0607 18.0607C22.342 17.7794 22.5 17.3978 22.5 17V12.5H21ZM13.5 21.5H10.5V18.5H13.5V21.5Z" fill="black"/>
<path d="M15.75 11.75L12 8.03L13.1925 6.8525L15.75 9.3875L21.3075 3.875L22.5 5.06L15.75 11.75Z" fill="black"/>
</svg>
