<svg width="30" height="32" viewBox="0 0 30 32" fill="none" xmlns="http://www.w3.org/2000/svg">
<path fill-rule="evenodd" clip-rule="evenodd" d="M10.9437 5.75C8.65074 5.75 6.72445 7.47411 6.47123 9.75306L5.41602 19.25H2.41602C1.58759 19.25 0.916016 19.9216 0.916016 20.75V22.25C0.916016 23.0784 1.58759 23.75 2.41602 23.75H23.416C24.2444 23.75 24.916 23.0784 24.916 22.25V20.75C24.916 19.9216 24.2444 19.25 23.416 19.25H20.416L19.3608 9.75306C19.1076 7.47411 17.1813 5.75 14.8883 5.75H10.9437Z" fill="#053688"/>
<path opacity="0.3" d="M9.91602 27.5C9.91602 26.2574 10.9234 25.25 12.166 25.25H13.666C14.9087 25.25 15.916 26.2574 15.916 27.5V29C15.916 30.2426 14.9087 31.25 13.666 31.25H12.166C10.9234 31.25 9.91602 30.2426 9.91602 29V27.5Z" fill="#053688"/>
<path fill-rule="evenodd" clip-rule="evenodd" d="M21.916 16.75C26.3343 16.75 29.916 13.1683 29.916 8.75C29.916 4.33172 26.3343 0.75 21.916 0.75C17.4977 0.75 13.916 4.33172 13.916 8.75C13.916 13.1683 17.4977 16.75 21.916 16.75Z" fill="#F93C65"/>
<path d="M21.828 12.87C20.78 12.87 19.968 12.502 19.392 11.766C18.824 11.03 18.54 9.998 18.54 8.67C18.54 7.238 18.86 6.13 19.5 5.346C20.148 4.562 21.04 4.17 22.176 4.17C22.624 4.17 23.068 4.254 23.508 4.422C23.948 4.582 24.324 4.814 24.636 5.118L24.132 6.27C23.836 5.998 23.52 5.798 23.184 5.67C22.848 5.534 22.504 5.466 22.152 5.466C21.456 5.466 20.924 5.71 20.556 6.198C20.188 6.686 20.004 7.414 20.004 8.382V8.73C20.172 8.29 20.444 7.946 20.82 7.698C21.196 7.45 21.628 7.326 22.116 7.326C22.604 7.326 23.036 7.442 23.412 7.674C23.788 7.906 24.084 8.226 24.3 8.634C24.516 9.042 24.624 9.51 24.624 10.038C24.624 10.582 24.504 11.07 24.264 11.502C24.032 11.926 23.704 12.262 23.28 12.51C22.864 12.75 22.38 12.87 21.828 12.87ZM21.744 11.646C22.176 11.646 22.524 11.506 22.788 11.226C23.06 10.938 23.196 10.562 23.196 10.098C23.196 9.634 23.06 9.258 22.788 8.97C22.524 8.682 22.176 8.538 21.744 8.538C21.312 8.538 20.96 8.682 20.688 8.97C20.424 9.258 20.292 9.634 20.292 10.098C20.292 10.562 20.424 10.938 20.688 11.226C20.96 11.506 21.312 11.646 21.744 11.646Z" fill="white"/>
</svg>
