<svg width="24" height="24" viewBox="0 0 24 24" fill="none" xmlns="http://www.w3.org/2000/svg">
<path d="M7.24 2H5.34C3.15 2 2 3.15 2 5.33V7.23C2 9.41 3.15 10.56 5.33 10.56H7.23C9.41 10.56 10.56 9.41 10.56 7.23V5.33C10.57 3.15 9.42 2 7.24 2Z" fill="#1A345C"/>
<path opacity="0.4" d="M18.6699 2H16.7699C14.5899 2 13.4399 3.15 13.4399 5.33V7.23C13.4399 9.41 14.5899 10.56 16.7699 10.56H18.6699C20.8499 10.56 21.9999 9.41 21.9999 7.23V5.33C21.9999 3.15 20.8499 2 18.6699 2Z" fill="#1A345C"/>
<path d="M18.6699 13.43H16.7699C14.5899 13.43 13.4399 14.58 13.4399 16.76V18.66C13.4399 20.84 14.5899 21.99 16.7699 21.99H18.6699C20.8499 21.99 21.9999 20.84 21.9999 18.66V16.76C21.9999 14.58 20.8499 13.43 18.6699 13.43Z" fill="#1A345C"/>
<path opacity="0.4" d="M7.24 13.43H5.34C3.15 13.43 2 14.58 2 16.76V18.66C2 20.85 3.15 22 5.33 22H7.23C9.41 22 10.56 20.85 10.56 18.67V16.77C10.57 14.58 9.42 13.43 7.24 13.43Z" fill="#1A345C"/>
</svg>
