<svg width="71" height="70" viewBox="0 0 71 70" fill="none" xmlns="http://www.w3.org/2000/svg">
<rect x="0.9375" y="0.4375" width="69.125" height="69.125" rx="6.5625" fill="#FCEEF6"/>
<rect x="0.9375" y="0.4375" width="69.125" height="69.125" rx="6.5625" stroke="#F7CAE2" stroke-width="0.875"/>
<path d="M31.1283 49.5834H39.8783C47.1699 49.5834 50.0866 46.6667 50.0866 39.3751V30.6251C50.0866 23.3334 47.1699 20.4167 39.8783 20.4167H31.1283C23.8366 20.4167 20.9199 23.3334 20.9199 30.6251V39.3751C20.9199 46.6667 23.8366 49.5834 31.1283 49.5834Z" stroke="#E455A2" stroke-width="2.1875" stroke-linecap="round" stroke-linejoin="round"/>
<path d="M20.9199 36.4583H26.4033C27.5116 36.4583 28.5178 37.0854 29.0137 38.0771L30.3116 40.6875C31.1283 42.2916 32.5866 42.2916 32.9366 42.2916H38.0845C39.1928 42.2916 40.1991 41.6646 40.6949 40.6729L41.9928 38.0625C42.4887 37.0708 43.4949 36.4437 44.6033 36.4437H50.0574" stroke="#E455A2" stroke-width="2.1875" stroke-linecap="round" stroke-linejoin="round"/>
<path d="M33.0801 27.7083H37.9363" stroke="#E455A2" stroke-width="2.1875" stroke-linecap="round" stroke-linejoin="round"/>
<path d="M31.8574 32.0833H39.1491" stroke="#E455A2" stroke-width="2.1875" stroke-linecap="round" stroke-linejoin="round"/>
</svg>
