<svg width="31" height="31" viewBox="0 0 31 31" fill="none"
    xmlns="http://www.w3.org/2000/svg">
    <path d="M24.8663 23.6261L27.4556 26.2269L26.4244 27.258L23.8237 24.6687L21.2229 27.2695L20.1917 26.2269L22.7925 23.6261L20.1917 21.0253L21.2229 19.9942L23.8237 22.595L26.4244 19.9942L27.4556 21.0368L24.8663 23.6261ZM9.89174 11.1607H8.42522V9.6942H9.89174V11.1607ZM9.89174 14.0937H8.42522V12.6272H9.89174V14.0937ZM8.42522 15.5603H9.89174V17.0268H8.42522V15.5603ZM6.95871 25.8259H18.6908V27.2924H5.49219V3.82812H18.2669L24.5569 10.1181V18.4933H23.0904V11.1607H17.2243V5.29464H6.95871V25.8259ZM18.6908 9.6942H22.0478L18.6908 6.33724V9.6942ZM15.7578 11.1607H11.3583V9.6942H15.7578V11.1607ZM15.7578 14.0937H11.3583V12.6272H15.7578V14.0937ZM11.3583 15.5603H15.7578V17.0268H11.3583V15.5603Z" fill="#979797"/>
</svg>
