<svg width="663" height="108" viewBox="0 0 663 108" fill="none"
    xmlns="http://www.w3.org/2000/svg">
    <!-- <rect width="663" height="108" fill="#CFE5FB"/> -->
    <path opacity="0.2" d="M91.5454 24.8533V22.6787H90.0416C89.9568 22.1483 89.7993 21.6273 89.5722 21.1254L90.9157 20.5041L89.5913 18.6402L88.2897 19.2615C87.8885 18.8371 87.4316 18.4496 86.9272 18.1058L87.6905 17.0123L85.4005 15.9343L84.6371 16.9937C84.0229 16.7892 83.383 16.6402 82.7288 16.5494V15.2695H80.0838V16.4935C79.4322 16.5626 78.7921 16.6908 78.1754 16.8756L77.4121 15.7821L75.1221 16.8601L75.8854 17.9194C75.3649 18.2468 74.8889 18.6186 74.4656 19.0285L73.1221 18.4072L71.8015 20.2711L73.0992 20.8924C72.848 21.3924 72.6649 21.9133 72.5534 22.4457H71V24.5986H72.5038C72.5886 25.129 72.7461 25.65 72.9732 26.1519L71.6298 26.7732L72.9542 28.6372L74.2557 28.0158C74.6579 28.4395 75.1147 28.827 75.6182 29.1715L74.8549 30.265L77.1449 31.3399L77.9083 30.2836C78.5225 30.4881 79.1624 30.6371 79.8166 30.7279V31.9985H82.4616V30.7558C83.1133 30.6868 83.7534 30.5586 84.37 30.3737L85.1333 31.4673L87.4234 30.3893L86.66 29.3299C87.1814 29.0034 87.6575 28.6315 88.0798 28.2209L89.4233 28.8422L90.7477 26.9782L89.4462 26.3569C89.6975 25.857 89.8805 25.3361 89.992 24.8036L91.5454 24.8533ZM74.9121 23.6387C74.9121 22.6138 75.2855 21.612 75.9851 20.7598C76.6846 19.9077 77.6789 19.2435 78.8422 18.8513C80.0054 18.4591 81.2855 18.3565 82.5204 18.5565C83.7554 18.7564 84.8897 19.2499 85.7801 19.9746C86.6704 20.6993 87.2768 21.6226 87.5224 22.6277C87.768 23.6329 87.642 24.6748 87.1601 25.6216C86.6783 26.5685 85.8623 27.3778 84.8154 27.9472C83.7684 28.5165 82.5376 28.8204 81.2784 28.8204C80.4411 28.8204 79.612 28.686 78.8386 28.4248C78.0652 28.1636 77.3627 27.7808 76.7714 27.2983C76.18 26.8159 75.7114 26.2432 75.3924 25.613C75.0733 24.9829 74.9101 24.3078 74.9121 23.6262V23.6387Z" stroke="black" stroke-opacity="0.3" stroke-linecap="round" stroke-linejoin="round"/>
    <path opacity="0.2" d="M111.104 18.3573V16.2045H109.604C109.52 15.6741 109.362 15.1531 109.135 14.6512L110.475 14.0299L109.154 12.1659L107.853 12.7872C107.452 12.3613 106.994 11.9737 106.486 11.6316L107.249 10.535L104.959 9.46008L104.196 10.5163C103.583 10.3106 102.942 10.1626 102.288 10.0752V8.78906H99.6466V10.0131C98.9947 10.0812 98.3545 10.2094 97.7382 10.3952L96.9749 9.30165L94.6848 10.3765L95.4482 11.4359C94.9316 11.7628 94.4618 12.1358 94.0474 12.548L92.704 11.9267L91.3796 13.7907L92.6811 14.412C92.4253 14.9106 92.2421 15.4319 92.1353 15.9653H90.5742V18.1181H92.078C92.1638 18.6484 92.3212 19.1693 92.5475 19.6714L91.204 20.2927L92.5246 22.1567L93.8299 21.5354C94.2299 21.9568 94.687 22.3403 95.1925 22.6786L94.4291 23.7721L96.7191 24.8501L97.4825 23.7907C98.0953 23.9985 98.7357 24.1476 99.3908 24.235V25.4994H102.036V24.2754C102.688 24.2078 103.328 24.0796 103.944 23.8933L104.708 24.9868L106.998 23.9119L106.234 22.8526C106.757 22.5257 107.233 22.1527 107.654 21.7404L109.001 22.3617L110.322 20.4978L109.024 19.8765C109.277 19.3772 109.459 18.856 109.566 18.3232L111.104 18.3573ZM94.4749 17.1427C94.4749 16.1178 94.8483 15.116 95.5478 14.2638C96.2474 13.4117 97.2416 12.7475 98.4049 12.3553C99.5682 11.9631 100.848 11.8605 102.083 12.0604C103.318 12.2604 104.453 12.7539 105.343 13.4786C106.233 14.2033 106.84 15.1266 107.085 16.1317C107.331 17.1369 107.205 18.1788 106.723 19.1256C106.241 20.0725 105.425 20.8818 104.378 21.4512C103.331 22.0205 102.1 22.3244 100.841 22.3244C100.005 22.3249 99.177 22.1911 98.4043 21.9308C97.6317 21.6706 96.9297 21.2889 96.3384 20.8076C95.7472 20.3264 95.2783 19.755 94.9585 19.1261C94.6387 18.4973 94.4744 17.8233 94.4749 17.1427Z" stroke="black" stroke-opacity="0.3" stroke-linecap="round" stroke-linejoin="round"/>
    <path opacity="0.2" d="M131.136 17.5683V15.4154H129.636C129.551 14.885 129.393 14.364 129.166 13.8621L130.506 13.2408L129.185 11.3769L127.884 11.9982C127.483 11.5723 127.025 11.1846 126.517 10.8425L127.281 9.7459L124.991 8.67102L124.227 9.72726C123.614 9.52151 122.974 9.37351 122.319 9.28612V8H119.678V9.22399C119.026 9.29217 118.386 9.42036 117.769 9.6061L117.006 8.51259L114.716 9.58746L115.479 10.6468C114.963 10.9737 114.493 11.3468 114.079 11.759L112.735 11.1376L111.411 13.0016L112.712 13.6229C112.457 14.1216 112.273 14.6429 112.167 15.1762H110.605V17.3291H112.109C112.195 17.8593 112.352 18.3802 112.579 18.8824L111.235 19.5037L112.556 21.3676L113.861 20.7463C114.261 21.1678 114.718 21.5513 115.224 21.8895L114.46 22.983L116.75 24.061L117.514 23.0017C118.127 23.2095 118.767 23.3585 119.422 23.4459V24.7103H122.067V23.4863C122.719 23.4187 123.359 23.2905 123.975 23.1042L124.739 24.1977L127.029 23.1228L126.265 22.0635C126.788 21.7367 127.264 21.3637 127.685 20.9513L129.033 21.5727L130.353 19.7087L129.055 19.0874C129.308 18.5881 129.49 18.067 129.597 17.5341L131.136 17.5683ZM114.506 16.3536C114.506 15.3287 114.88 14.3269 115.579 13.4748C116.279 12.6226 117.273 11.9585 118.436 11.5663C119.599 11.1741 120.88 11.0714 122.114 11.2714C123.349 11.4713 124.484 11.9648 125.374 12.6895C126.264 13.4142 126.871 14.3375 127.116 15.3427C127.362 16.3479 127.236 17.3897 126.754 18.3366C126.272 19.2834 125.456 20.0927 124.409 20.6621C123.362 21.2315 122.132 21.5354 120.872 21.5354C120.036 21.5358 119.208 21.402 118.436 21.1418C117.663 20.8815 116.961 20.4998 116.37 20.0186C115.778 19.5373 115.31 18.9659 114.99 18.3371C114.67 17.7082 114.506 17.0342 114.506 16.3536Z" stroke="black" stroke-opacity="0.3" stroke-linecap="round" stroke-linejoin="round"/>
    <path opacity="0.2" d="M469.545 83.8533V81.6787H468.042C467.957 81.1483 467.799 80.6273 467.572 80.1254L468.916 79.5041L467.591 77.6402L466.29 78.2615C465.889 77.8371 465.432 77.4496 464.927 77.1058L465.691 76.0123L463.4 74.9343L462.637 75.9937C462.023 75.7892 461.383 75.6402 460.729 75.5494V74.2695H458.084V75.4935C457.432 75.5626 456.792 75.6908 456.175 75.8756L455.412 74.7821L453.122 75.8601L453.885 76.9194C453.365 77.2468 452.889 77.6186 452.466 78.0285L451.122 77.4072L449.802 79.2711L451.099 79.8924C450.848 80.3924 450.665 80.9133 450.553 81.4457H449V83.5986H450.504C450.589 84.129 450.746 84.65 450.973 85.1519L449.63 85.7732L450.954 87.6372L452.256 87.0158C452.658 87.4395 453.115 87.827 453.618 88.1715L452.855 89.265L455.145 90.3399L455.908 89.2836C456.522 89.4881 457.162 89.6371 457.817 89.7279V90.9985H460.462V89.7558C461.113 89.6868 461.753 89.5586 462.37 89.3737L463.133 90.4673L465.423 89.3893L464.66 88.3299C465.181 88.0034 465.657 87.6315 466.08 87.2209L467.423 87.8422L468.748 85.9782L467.446 85.3569C467.697 84.857 467.88 84.3361 467.992 83.8036L469.545 83.8533ZM452.912 82.6387C452.912 81.6138 453.286 80.612 453.985 79.7598C454.685 78.9077 455.679 78.2435 456.842 77.8513C458.005 77.4591 459.285 77.3565 460.52 77.5565C461.755 77.7564 462.89 78.2499 463.78 78.9746C464.67 79.6993 465.277 80.6226 465.522 81.6277C465.768 82.6329 465.642 83.6748 465.16 84.6216C464.678 85.5685 463.862 86.3778 462.815 86.9472C461.768 87.5165 460.538 87.8204 459.278 87.8204C458.441 87.8204 457.612 87.686 456.839 87.4248C456.065 87.1636 455.363 86.7808 454.771 86.2983C454.18 85.8159 453.711 85.2432 453.392 84.613C453.073 83.9829 452.91 83.3078 452.912 82.6262V82.6387Z" stroke="black" stroke-opacity="0.3" stroke-linecap="round" stroke-linejoin="round"/>
    <path opacity="0.2" d="M489.104 77.3573V75.2045H487.604C487.52 74.6741 487.362 74.1531 487.135 73.6512L488.475 73.0299L487.154 71.1659L485.853 71.7872C485.452 71.3613 484.994 70.9737 484.486 70.6316L485.249 69.535L482.959 68.4601L482.196 69.5163C481.583 69.3106 480.942 69.1626 480.288 69.0752V67.7891H477.647V69.0131C476.995 69.0812 476.355 69.2094 475.738 69.3952L474.975 68.3016L472.685 69.3765L473.448 70.4359C472.932 70.7628 472.462 71.1358 472.047 71.548L470.704 70.9267L469.38 72.7907L470.681 73.412C470.425 73.9106 470.242 74.4319 470.135 74.9653H468.574V77.1181H470.078C470.164 77.6484 470.321 78.1693 470.547 78.6714L469.204 79.2927L470.525 81.1567L471.83 80.5354C472.23 80.9568 472.687 81.3403 473.192 81.6786L472.429 82.7721L474.719 83.8501L475.482 82.7907C476.095 82.9985 476.736 83.1476 477.391 83.235V84.4994H480.036V83.2754C480.688 83.2078 481.328 83.0796 481.944 82.8933L482.708 83.9868L484.998 82.9119L484.234 81.8526C484.757 81.5257 485.233 81.1527 485.654 80.7404L487.001 81.3617L488.322 79.4978L487.024 78.8765C487.277 78.3772 487.459 77.856 487.566 77.3232L489.104 77.3573ZM472.475 76.1427C472.475 75.1178 472.848 74.116 473.548 73.2638C474.247 72.4117 475.242 71.7475 476.405 71.3553C477.568 70.9631 478.848 70.8605 480.083 71.0604C481.318 71.2604 482.453 71.7539 483.343 72.4786C484.233 73.2033 484.84 74.1266 485.085 75.1317C485.331 76.1369 485.205 77.1788 484.723 78.1256C484.241 79.0725 483.425 79.8818 482.378 80.4512C481.331 81.0205 480.1 81.3244 478.841 81.3244C478.005 81.3249 477.177 81.1911 476.404 80.9308C475.632 80.6706 474.93 80.2889 474.338 79.8076C473.747 79.3264 473.278 78.755 472.958 78.1261C472.639 77.4973 472.474 76.8233 472.475 76.1427Z" stroke="black" stroke-opacity="0.3" stroke-linecap="round" stroke-linejoin="round"/>
    <path opacity="0.2" d="M509.136 76.5683V74.4154H507.636C507.551 73.885 507.393 73.364 507.166 72.8621L508.506 72.2408L507.185 70.3769L505.884 70.9982C505.483 70.5723 505.025 70.1846 504.517 69.8425L505.281 68.7459L502.991 67.671L502.227 68.7273C501.614 68.5215 500.974 68.3735 500.319 68.2861V67H497.678V68.224C497.026 68.2922 496.386 68.4204 495.769 68.6061L495.006 67.5126L492.716 68.5875L493.479 69.6468C492.963 69.9737 492.493 70.3468 492.079 70.759L490.735 70.1376L489.411 72.0016L490.712 72.6229C490.457 73.1216 490.273 73.6429 490.167 74.1762H488.605V76.3291H490.109C490.195 76.8593 490.352 77.3802 490.579 77.8824L489.235 78.5037L490.556 80.3676L491.861 79.7463C492.261 80.1678 492.718 80.5513 493.224 80.8895L492.46 81.983L494.75 83.061L495.514 82.0017C496.127 82.2095 496.767 82.3585 497.422 82.4459V83.7103H500.067V82.4863C500.719 82.4187 501.359 82.2905 501.975 82.1042L502.739 83.1977L505.029 82.1228L504.265 81.0635C504.788 80.7367 505.264 80.3637 505.685 79.9513L507.033 80.5727L508.353 78.7087L507.055 78.0874C507.308 77.5881 507.49 77.067 507.597 76.5341L509.136 76.5683ZM492.506 75.3536C492.506 74.3287 492.88 73.3269 493.579 72.4748C494.279 71.6226 495.273 70.9585 496.436 70.5663C497.599 70.1741 498.88 70.0714 500.114 70.2714C501.349 70.4713 502.484 70.9648 503.374 71.6895C504.264 72.4142 504.871 73.3375 505.116 74.3427C505.362 75.3479 505.236 76.3897 504.754 77.3366C504.272 78.2834 503.456 79.0927 502.409 79.6621C501.362 80.2315 500.132 80.5354 498.872 80.5354C498.036 80.5358 497.208 80.402 496.436 80.1418C495.663 79.8815 494.961 79.4998 494.37 79.0186C493.778 78.5373 493.31 77.9659 492.99 77.3371C492.67 76.7082 492.506 76.0342 492.506 75.3536Z" stroke="black" stroke-opacity="0.3" stroke-linecap="round" stroke-linejoin="round"/>
    <path opacity="0.2" d="M596.545 87.8533V85.6787H595.042C594.957 85.1483 594.799 84.6273 594.572 84.1254L595.916 83.5041L594.591 81.6402L593.29 82.2615C592.889 81.8371 592.432 81.4496 591.927 81.1058L592.691 80.0123L590.4 78.9343L589.637 79.9937C589.023 79.7892 588.383 79.6402 587.729 79.5494V78.2695H585.084V79.4935C584.432 79.5626 583.792 79.6908 583.175 79.8756L582.412 78.7821L580.122 79.8601L580.885 80.9194C580.365 81.2468 579.889 81.6186 579.466 82.0285L578.122 81.4072L576.802 83.2711L578.099 83.8924C577.848 84.3924 577.665 84.9133 577.553 85.4457H576V87.5986H577.504C577.589 88.129 577.746 88.65 577.973 89.1519L576.63 89.7732L577.954 91.6372L579.256 91.0158C579.658 91.4395 580.115 91.827 580.618 92.1715L579.855 93.265L582.145 94.3399L582.908 93.2836C583.522 93.4881 584.162 93.6371 584.817 93.7279V94.9985H587.462V93.7558C588.113 93.6868 588.753 93.5586 589.37 93.3737L590.133 94.4673L592.423 93.3893L591.66 92.3299C592.181 92.0034 592.657 91.6315 593.08 91.2209L594.423 91.8422L595.748 89.9782L594.446 89.3569C594.697 88.857 594.88 88.3361 594.992 87.8036L596.545 87.8533ZM579.912 86.6387C579.912 85.6138 580.286 84.612 580.985 83.7598C581.685 82.9077 582.679 82.2435 583.842 81.8513C585.005 81.4591 586.285 81.3565 587.52 81.5565C588.755 81.7564 589.89 82.2499 590.78 82.9746C591.67 83.6993 592.277 84.6226 592.522 85.6277C592.768 86.6329 592.642 87.6748 592.16 88.6216C591.678 89.5685 590.862 90.3778 589.815 90.9472C588.768 91.5165 587.538 91.8204 586.278 91.8204C585.441 91.8204 584.612 91.686 583.839 91.4248C583.065 91.1636 582.363 90.7808 581.771 90.2983C581.18 89.8159 580.711 89.2432 580.392 88.613C580.073 87.9829 579.91 87.3078 579.912 86.6262V86.6387Z" stroke="black" stroke-opacity="0.3" stroke-linecap="round" stroke-linejoin="round"/>
    <path opacity="0.2" d="M616.104 81.3573V79.2045H614.604C614.52 78.6741 614.362 78.1531 614.135 77.6512L615.475 77.0299L614.154 75.1659L612.853 75.7872C612.452 75.3613 611.994 74.9737 611.486 74.6316L612.249 73.535L609.959 72.4601L609.196 73.5163C608.583 73.3106 607.942 73.1626 607.288 73.0752V71.7891H604.647V73.0131C603.995 73.0812 603.355 73.2094 602.738 73.3952L601.975 72.3016L599.685 73.3765L600.448 74.4359C599.932 74.7628 599.462 75.1358 599.047 75.548L597.704 74.9267L596.38 76.7907L597.681 77.412C597.425 77.9106 597.242 78.4319 597.135 78.9653H595.574V81.1181H597.078C597.164 81.6484 597.321 82.1693 597.547 82.6714L596.204 83.2927L597.525 85.1567L598.83 84.5354C599.23 84.9568 599.687 85.3403 600.192 85.6786L599.429 86.7721L601.719 87.8501L602.482 86.7907C603.095 86.9985 603.736 87.1476 604.391 87.235V88.4994H607.036V87.2754C607.688 87.2078 608.328 87.0796 608.944 86.8933L609.708 87.9868L611.998 86.9119L611.234 85.8526C611.757 85.5257 612.233 85.1527 612.654 84.7404L614.001 85.3617L615.322 83.4978L614.024 82.8765C614.277 82.3772 614.459 81.856 614.566 81.3232L616.104 81.3573ZM599.475 80.1427C599.475 79.1178 599.848 78.116 600.548 77.2638C601.247 76.4117 602.242 75.7475 603.405 75.3553C604.568 74.9631 605.848 74.8605 607.083 75.0604C608.318 75.2604 609.453 75.7539 610.343 76.4786C611.233 77.2033 611.84 78.1266 612.085 79.1317C612.331 80.1369 612.205 81.1788 611.723 82.1256C611.241 83.0725 610.425 83.8818 609.378 84.4512C608.331 85.0205 607.1 85.3244 605.841 85.3244C605.005 85.3249 604.177 85.1911 603.404 84.9308C602.632 84.6706 601.93 84.2889 601.338 83.8076C600.747 83.3264 600.278 82.755 599.958 82.1261C599.639 81.4973 599.474 80.8233 599.475 80.1427Z" stroke="black" stroke-opacity="0.3" stroke-linecap="round" stroke-linejoin="round"/>
    <path opacity="0.2" d="M636.136 80.5683V78.4154H634.636C634.551 77.885 634.393 77.364 634.166 76.8621L635.506 76.2408L634.185 74.3769L632.884 74.9982C632.483 74.5723 632.025 74.1846 631.517 73.8425L632.281 72.7459L629.991 71.671L629.227 72.7273C628.614 72.5215 627.974 72.3735 627.319 72.2861V71H624.678V72.224C624.026 72.2922 623.386 72.4204 622.769 72.6061L622.006 71.5126L619.716 72.5875L620.479 73.6468C619.963 73.9737 619.493 74.3468 619.079 74.759L617.735 74.1376L616.411 76.0016L617.712 76.6229C617.457 77.1216 617.273 77.6429 617.167 78.1762H615.605V80.3291H617.109C617.195 80.8593 617.352 81.3802 617.579 81.8824L616.235 82.5037L617.556 84.3676L618.861 83.7463C619.261 84.1678 619.718 84.5513 620.224 84.8895L619.46 85.983L621.75 87.061L622.514 86.0017C623.127 86.2095 623.767 86.3585 624.422 86.4459V87.7103H627.067V86.4863C627.719 86.4187 628.359 86.2905 628.975 86.1042L629.739 87.1977L632.029 86.1228L631.265 85.0635C631.788 84.7367 632.264 84.3637 632.685 83.9513L634.033 84.5727L635.353 82.7087L634.055 82.0874C634.308 81.5881 634.49 81.067 634.597 80.5341L636.136 80.5683ZM619.506 79.3536C619.506 78.3287 619.88 77.3269 620.579 76.4748C621.279 75.6226 622.273 74.9585 623.436 74.5663C624.599 74.1741 625.88 74.0714 627.114 74.2714C628.349 74.4713 629.484 74.9648 630.374 75.6895C631.264 76.4142 631.871 77.3375 632.116 78.3427C632.362 79.3479 632.236 80.3897 631.754 81.3366C631.272 82.2834 630.456 83.0927 629.409 83.6621C628.362 84.2315 627.132 84.5354 625.872 84.5354C625.036 84.5358 624.208 84.402 623.436 84.1418C622.663 83.8815 621.961 83.4998 621.37 83.0186C620.778 82.5373 620.31 81.9659 619.99 81.3371C619.67 80.7082 619.506 80.0342 619.506 79.3536Z" stroke="black" stroke-opacity="0.3" stroke-linecap="round" stroke-linejoin="round"/>
</svg>
