<svg width="21" height="24" viewBox="0 0 21 24" fill="none"
    xmlns="http://www.w3.org/2000/svg">
    <path d="M9.38743 -0.0078125C7.64988 -0.0078125 6.25398 1.436 6.25398 3.18154V3.56934H2.73185C2.24289 3.56934 1.84444 3.96778 1.84444 4.45675V5.34416H0.957031V7.11898H2.73185V20.4301C2.73185 21.8899 3.93429 23.0924 5.39408 23.0924H16.043C17.5028 23.0924 18.7052 21.8899 18.7052 20.4301V7.11898H20.48V5.34416H19.5926V4.45675C19.5926 3.96778 19.1942 3.56934 18.7052 3.56934H15.1831V3.18065C15.1831 1.436 13.7872 -0.0078125 12.0497 -0.0078125H9.38743ZM9.38743 1.82203H12.0497C12.7631 1.82203 13.3533 2.40417 13.3533 3.18065V3.56934H8.08293V3.18065C8.08293 2.40417 8.67306 1.82291 9.38654 1.82291L9.38743 1.82203ZM4.50667 7.11898H9.05465C9.16469 7.13051 9.27384 7.14649 9.38743 7.14649H12.0497C12.1632 7.14649 12.2715 7.13051 12.3824 7.11898H16.9304V20.4301C16.9304 20.9297 16.5426 21.3175 16.043 21.3175H5.39408C4.89447 21.3175 4.50667 20.9297 4.50667 20.4301V7.11898ZM6.28149 8.8938V19.5427H8.05631V8.8938H6.28149ZM9.83113 8.8938V19.5427H11.606V8.8938H9.83113ZM13.3808 8.8938V19.5427H15.1556V8.8938H13.3808Z" fill="#979797" fill-opacity="0.5"/>
</svg>
