<svg width="24" height="25" viewBox="0 0 24 25" fill="none" xmlns="http://www.w3.org/2000/svg">
<g clip-path="url(#clip0_2185_25421)">
<path fill-rule="evenodd" clip-rule="evenodd" d="M12 0.200195C10.0204 0.206403 8.10822 0.920398 6.609 2.2132C5.46 3.2032 4.6275 4.4932 4.413 5.78769C1.899 6.3427 0 8.53269 0 11.1772C0 14.2492 2.562 16.7002 5.6715 16.7002H11.25V8.4502C11.25 8.25128 11.329 8.06052 11.4697 7.91987C11.6103 7.77921 11.8011 7.7002 12 7.7002C12.1989 7.7002 12.3897 7.77921 12.5303 7.91987C12.671 8.06052 12.75 8.25128 12.75 8.4502V16.7002H19.032C21.753 16.7002 24 14.5552 24 11.8597C24 9.40569 22.137 7.4062 19.749 7.0687C19.3845 3.1987 16.035 0.200195 12 0.200195ZM11.469 23.9812C11.5387 24.051 11.6214 24.1065 11.7125 24.1443C11.8037 24.1821 11.9013 24.2015 12 24.2015C12.0987 24.2015 12.1963 24.1821 12.2874 24.1443C12.3786 24.1065 12.4613 24.051 12.531 23.9812L17.031 19.4812C17.1718 19.3404 17.2509 19.1494 17.2509 18.9502C17.2509 18.751 17.1718 18.56 17.031 18.4192C16.8902 18.2784 16.6992 18.1992 16.5 18.1992C16.3008 18.1992 16.1098 18.2784 15.969 18.4192L12.75 21.6397V16.7002H11.25V21.6397L8.031 18.4192C7.89017 18.2784 7.69916 18.1992 7.5 18.1992C7.30084 18.1992 7.10983 18.2784 6.969 18.4192C6.82817 18.56 6.74905 18.751 6.74905 18.9502C6.74905 19.1494 6.82817 19.3404 6.969 19.4812L11.469 23.9812Z" fill="#1E3AA5"/>
</g>
<defs>
<clipPath id="clip0_2185_25421">
<rect width="24" height="24" fill="white" transform="translate(0 0.200195)"/>
</clipPath>
</defs>
</svg>
