<svg width="26" height="25" viewBox="0 0 26 25" fill="none" xmlns="http://www.w3.org/2000/svg">
<path d="M16.3989 4.65111H10.1987L7.9027 1.20614C7.55879 0.690747 7.92692 0.000976562 8.54694 0.000976562H18.0507C18.6707 0.000976562 19.0388 0.690747 18.6949 1.20614L16.3989 4.65111ZM10.1987 6.20116H16.3989C16.583 6.32225 16.7912 6.45788 16.985 6.60804C19.7751 8.36637 25.6992 12.1543 25.6992 20.1516C25.6992 22.7188 23.6163 24.8017 21.049 24.8017H5.54857C2.98034 24.8017 0.898438 22.7188 0.898438 20.1516C0.898438 12.1543 6.82252 8.36637 9.569 6.60804C9.80635 6.45788 10.0146 6.32225 10.1987 6.20116ZM14.2724 10.8513C14.2724 10.3136 13.8365 9.87767 13.2552 9.87767C12.7611 9.87767 12.3252 10.3136 12.3252 10.8513V11.1419C12.0539 11.2001 11.7536 11.2824 11.555 11.389C10.8333 11.7183 10.2036 12.3287 10.0485 13.2151C9.96136 13.7092 10.0098 14.1887 10.2132 14.6198C10.4167 15.0461 10.7315 15.3464 11.0512 15.5644C11.6131 15.9471 12.3542 16.1699 12.921 16.3394L13.0275 16.3685C13.7057 16.5768 14.161 16.7269 14.4468 16.9352C14.5679 17.0224 14.6115 17.0902 14.626 17.1338C14.6454 17.1726 14.6745 17.2598 14.6406 17.4535C14.6115 17.6231 14.5195 17.7684 14.253 17.8798C13.9576 18.0057 13.478 18.0687 12.858 17.9718C12.5674 17.9234 12.0491 17.749 11.5889 17.594C11.4823 17.5552 11.3758 17.5213 11.2789 17.4874C10.7703 17.3179 10.2229 17.594 10.0534 18.1026C9.88385 18.6112 10.16 19.1586 10.6686 19.2845C10.7267 19.3475 10.7994 19.3717 10.8817 19.4008C11.2208 19.5315 11.865 19.735 12.3252 19.8416V20.1516C12.3252 20.6892 12.7611 21.1252 13.2552 21.1252C13.8365 21.1252 14.2724 20.6892 14.2724 20.1516V19.8851C14.5291 19.8367 14.781 19.7205 15.0135 19.6623C15.7789 19.3378 16.3892 18.7081 16.549 17.7877C16.6362 17.284 16.5975 16.7996 16.4037 16.3588C16.2148 15.9228 15.9097 15.6031 15.5851 15.3706C14.999 14.9395 14.2143 14.707 13.6282 14.5278L13.5458 14.5181C12.9016 14.3098 12.4366 14.1645 12.1411 13.9611C12.0152 13.8739 11.9764 13.8158 11.9667 13.7915C11.957 13.7722 11.928 13.714 11.957 13.5493C11.9764 13.4525 12.0491 13.2926 12.3542 13.157C12.6255 13.0165 13.1486 12.939 13.7396 12.9874C13.9527 13.0649 14.6066 13.1909 14.7956 13.2393C15.309 13.3798 15.8418 13.0698 15.9775 12.5515C16.1179 12.038 15.8079 11.5052 15.2896 11.3696C15.0765 11.3115 14.5921 11.2146 14.2724 11.1565V10.8513Z" fill="#053688"/>
</svg>
