<svg width="40" height="40" viewBox="0 0 40 40" fill="none" xmlns="http://www.w3.org/2000/svg">
<rect width="40" height="40" rx="20" fill="#FDF0E7"/>
<g opacity="0.4">
<mask id="path-2-inside-1_357_41906" fill="white">
<path d="M26 26.6667H14C13.7267 26.6667 13.5 26.4401 13.5 26.1667C13.5 25.8934 13.7267 25.6667 14 25.6667H26C26.2733 25.6667 26.5 25.8934 26.5 26.1667C26.5 26.4401 26.2733 26.6667 26 26.6667Z"/>
</mask>
<path d="M26 26.6667H14C13.7267 26.6667 13.5 26.4401 13.5 26.1667C13.5 25.8934 13.7267 25.6667 14 25.6667H26C26.2733 25.6667 26.5 25.8934 26.5 26.1667C26.5 26.4401 26.2733 26.6667 26 26.6667Z" fill="#ED6810"/>
<path d="M26 25.6667H14V27.6667H26V25.6667ZM14 25.6667C14.279 25.6667 14.5 25.8878 14.5 26.1667H12.5C12.5 26.9924 13.1744 27.6667 14 27.6667V25.6667ZM14.5 26.1667C14.5 26.4457 14.279 26.6667 14 26.6667V24.6667C13.1744 24.6667 12.5 25.3411 12.5 26.1667H14.5ZM14 26.6667H26V24.6667H14V26.6667ZM26 26.6667C25.721 26.6667 25.5 26.4457 25.5 26.1667H27.5C27.5 25.3411 26.8256 24.6667 26 24.6667V26.6667ZM25.5 26.1667C25.5 25.8878 25.721 25.6667 26 25.6667V27.6667C26.8256 27.6667 27.5 26.9924 27.5 26.1667H25.5Z" fill="#ED6810" mask="url(#path-2-inside-1_357_41906)"/>
</g>
<path opacity="0.4" d="M24.3268 14.6733L24.3268 14.6733L24.3286 14.675C24.9402 15.2805 25.1652 15.7984 25.1604 16.2746L25.1604 16.2746V16.2797C25.1604 16.7372 24.9355 17.2503 24.3286 17.851L24.3286 17.851L24.3254 17.8543L23.6231 18.5624C22.1209 18.0875 20.9154 16.883 20.4391 15.3814L21.1473 14.6733C21.758 14.0626 22.2853 13.8342 22.7463 13.8372C23.209 13.8402 23.7305 14.0769 24.3268 14.6733Z" fill="#ED6810" stroke="#ED6810"/>
<path d="M21.5919 19.8235C21.7577 19.9217 21.9258 20.0081 22.0905 20.0888L18.433 23.7463L18.4273 23.752C18.4271 23.7521 18.427 23.7522 18.4269 23.7523C18.4203 23.7569 18.4093 23.7637 18.3946 23.771C18.3801 23.7782 18.3656 23.7843 18.3532 23.7886C18.3459 23.7911 18.341 23.7924 18.3386 23.7931L15.7903 24.1514L15.7902 24.1512L15.7777 24.1533C15.7245 24.1622 15.672 24.1665 15.6199 24.1665C15.3789 24.1665 15.1769 24.0833 15.0398 23.9525C14.8861 23.792 14.7945 23.5304 14.8412 23.2126L14.8417 23.2097L15.1994 20.6726C15.2001 20.6701 15.2013 20.6661 15.2032 20.6607C15.2077 20.6481 15.2141 20.6328 15.2221 20.6168C15.2301 20.6008 15.2381 20.5874 15.2445 20.5778C15.2471 20.574 15.249 20.5715 15.2499 20.5703L18.9075 16.9127C18.9901 17.0758 19.0772 17.2407 19.1761 17.4076C19.2604 17.5502 19.3622 17.7128 19.4607 17.8393C19.5675 18.0001 19.6831 18.1384 19.7478 18.2158C19.7509 18.2195 19.7539 18.2231 19.7568 18.2266C19.7608 18.2317 19.7654 18.2377 19.7704 18.2442C19.7854 18.2638 19.8037 18.2876 19.8161 18.303C19.8274 18.3171 19.8436 18.337 19.8625 18.3573C19.8675 18.3627 19.8752 18.3709 19.8854 18.3809C20.1155 18.6558 20.3678 18.9011 20.5948 19.095C20.623 19.1228 20.6507 19.1485 20.6756 19.1703C20.6901 19.183 20.7065 19.1968 20.7233 19.21C20.7236 19.2102 20.724 19.2105 20.7244 19.2108C20.7277 19.2133 20.735 19.2191 20.7454 19.2266C20.8666 19.328 21.0071 19.4405 21.1381 19.5264C21.2837 19.6301 21.4331 19.7297 21.5919 19.8235ZM21.5919 19.8235C21.592 19.8235 21.5921 19.8236 21.5922 19.8237L21.8466 19.3932L21.5917 19.8233C21.5917 19.8234 21.5918 19.8234 21.5919 19.8235Z" fill="#ED6810" stroke="#ED6810"/>
</svg>
