<svg width="18" height="18" viewBox="0 0 18 18" fill="none" xmlns="http://www.w3.org/2000/svg">
<path d="M16.0788 8.28768L9.18625 15.1802C8.34187 16.0246 7.19664 16.4989 6.0025 16.4989C4.80837 16.4989 3.66314 16.0246 2.81875 15.1802C1.97437 14.3358 1.5 13.1906 1.5 11.9964C1.5 10.8023 1.97437 9.65707 2.81875 8.81268L9.71125 1.92018C10.2742 1.35726 11.0377 1.04102 11.8338 1.04102C12.6298 1.04102 13.3933 1.35726 13.9563 1.92018C14.5192 2.48311 14.8354 3.24659 14.8354 4.04268C14.8354 4.83878 14.5192 5.60226 13.9563 6.16518L7.05625 13.0577C6.77479 13.3391 6.39305 13.4973 5.995 13.4973C5.59696 13.4973 5.21521 13.3391 4.93375 13.0577C4.65229 12.7762 4.49417 12.3945 4.49417 11.9964C4.49417 11.5984 4.65229 11.2166 4.93375 10.9352L11.3013 4.57518" stroke="#081332" stroke-linecap="round" stroke-linejoin="round"/>
</svg>
