<svg width="24" height="25" viewBox="0 0 24 25" fill="none" xmlns="http://www.w3.org/2000/svg">
<path d="M21 13.25V17H3V5H10.5V3.5H3C2.60218 3.5 2.22064 3.65804 1.93934 3.93934C1.65804 4.22064 1.5 4.60218 1.5 5V17C1.5 17.3978 1.65804 17.7794 1.93934 18.0607C2.22064 18.342 2.60218 18.5 3 18.5H9V21.5H6V23H18V21.5H15V18.5H21C21.3978 18.5 21.7794 18.342 22.0607 18.0607C22.342 17.7794 22.5 17.3978 22.5 17V13.25H21ZM13.5 21.5H10.5V18.5H13.5V21.5Z" fill="black"/>
<path d="M22.5 8V6.5H20.9242C20.8275 6.03052 20.6411 5.58411 20.3752 5.18525L21.4928 4.06775L20.4323 3.00725L19.3148 4.12475C18.9159 3.85888 18.4695 3.67248 18 3.57575V2H16.5V3.57575C16.0305 3.67248 15.5841 3.85888 15.1852 4.12475L14.0677 3.00725L13.0073 4.06775L14.1248 5.18525C13.8589 5.58411 13.6725 6.03052 13.5757 6.5H12V8H13.5757C13.6725 8.46948 13.8589 8.91589 14.1248 9.31475L13.0073 10.4323L14.0677 11.4928L15.1852 10.3752C15.5841 10.6411 16.0305 10.8275 16.5 10.9242V12.5H18V10.9242C18.4695 10.8275 18.9159 10.6411 19.3148 10.3752L20.4323 11.4928L21.4928 10.4323L20.3752 9.31475C20.6411 8.91589 20.8275 8.46948 20.9242 8H22.5ZM17.25 9.5C16.805 9.5 16.37 9.36804 16 9.12081C15.63 8.87357 15.3416 8.52217 15.1713 8.11104C15.001 7.6999 14.9564 7.2475 15.0432 6.81105C15.13 6.37459 15.3443 5.97368 15.659 5.65901C15.9737 5.34434 16.3746 5.13005 16.811 5.04323C17.2475 4.95642 17.6999 5.00097 18.111 5.17127C18.5222 5.34157 18.8736 5.62996 19.1208 5.99997C19.368 6.36998 19.5 6.80499 19.5 7.25C19.4994 7.84655 19.2622 8.4185 18.8403 8.84033C18.4185 9.26216 17.8466 9.4994 17.25 9.5Z" fill="black"/>
</svg>
