<svg width="24" height="25" viewBox="0 0 24 25" fill="none" xmlns="http://www.w3.org/2000/svg">
<path d="M20.9602 18.6971L19.3302 19.2472C18.8802 19.3972 18.5202 19.7471 18.3702 20.2071L17.8202 21.8372C17.3502 23.2472 15.3702 23.2172 14.9302 21.8072L13.0802 15.8571C12.7202 14.6771 13.8102 13.5771 14.9802 13.9471L20.9402 15.7971C22.3402 16.2371 22.3602 18.2271 20.9602 18.6971Z" fill="#666666"/>
<path opacity="0.4" d="M11.5 21.8571C16.7467 21.8571 21 17.6039 21 12.3571C21 7.11044 16.7467 2.85715 11.5 2.85715C6.25329 2.85715 2 7.11044 2 12.3571C2 17.6039 6.25329 21.8571 11.5 21.8571Z" fill="#666666"/>
</svg>
