<svg width="61" height="61" viewBox="0 0 61 61" fill="none" xmlns="http://www.w3.org/2000/svg">
<path opacity="0.21" fill-rule="evenodd" clip-rule="evenodd" d="M0.666016 30.4648V37.4648C0.666016 50.1674 10.9635 60.4648 23.666 60.4648H30.666H37.666C50.3686 60.4648 60.666 50.1674 60.666 37.4648V30.4648V23.4648C60.666 10.7623 50.3686 0.464844 37.666 0.464844H30.666H23.666C10.9635 0.464844 0.666016 10.7623 0.666016 23.4648V30.4648Z" fill="#FEC53D"/>
<path fill-rule="evenodd" clip-rule="evenodd" d="M15.666 24.781L28.5665 32.2291C28.7054 32.3093 28.8511 32.3672 28.9993 32.404V46.8492L16.5861 39.503C16.0158 39.1656 15.666 38.5521 15.666 37.8894V24.781ZM45.666 24.583V37.8894C45.666 38.5521 45.3162 39.1656 44.7459 39.503L32.3327 46.8492V32.2775C32.3629 32.2624 32.3929 32.2462 32.4226 32.2291L45.666 24.583Z" fill="#FEC53D"/>
<path opacity="0.499209" fill-rule="evenodd" clip-rule="evenodd" d="M16.0703 21.1663C16.2279 20.9673 16.4268 20.7991 16.6587 20.6756L29.7837 13.6849C30.3346 13.3915 30.9955 13.3915 31.5465 13.6849L44.6715 20.6756C44.8503 20.7708 45.0094 20.8926 45.1451 21.0345L30.755 29.3427C30.6604 29.3973 30.5731 29.4598 30.4936 29.5289C30.4141 29.4598 30.3269 29.3973 30.2322 29.3427L16.0703 21.1663Z" fill="#FEC53D"/>
</svg>
