<svg width="20" height="17" viewBox="0 0 20 17" fill="none"
    xmlns="http://www.w3.org/2000/svg">
    <path d="M0.730469 16.5L10.0005 0.5L19.2705 16.5H0.730469ZM10.0005 14.116C10.1751 14.116 10.3215 14.057 10.4395 13.939C10.5575 13.821 10.6161 13.6747 10.6155 13.5C10.6148 13.3253 10.5558 13.1793 10.4385 13.062C10.3211 12.9447 10.1751 12.8853 10.0005 12.884C9.8258 12.8827 9.6798 12.9417 9.56247 13.061C9.44514 13.1803 9.38614 13.3267 9.38547 13.5C9.3848 13.6733 9.4438 13.8197 9.56247 13.939C9.68114 14.0583 9.82714 14.1173 10.0005 14.116ZM9.50047 11.885H10.5005V6.885H9.50047V11.885Z" fill="#AA7C2C"/>
</svg>
