<svg width="32" height="25" viewBox="0 0 32 25" fill="none" xmlns="http://www.w3.org/2000/svg">
<path d="M31.0454 16.4315C31.0454 17.3615 29.5008 17.9815 27.6987 18.2915C26.5402 15.6564 24.2232 13.6414 21.5201 12.2463C21.7775 11.7813 22.0349 11.4713 22.2924 11.0063H23.3221C27.3125 10.8513 31.0454 13.7964 31.0454 16.4315ZM8.90538 10.8513H7.87561C3.88526 10.8513 0.152344 13.7964 0.152344 16.4315C0.152344 17.3615 1.697 17.9815 3.49909 18.2915C4.65758 15.6564 6.97456 13.6414 9.67771 12.2463L8.90538 10.8513ZM15.5989 12.4013C18.4307 12.4013 20.7477 9.61126 20.7477 6.20116C20.7477 2.79106 18.4307 0.000976562 15.5989 0.000976562C12.767 0.000976562 10.45 2.79106 10.45 6.20116C10.45 9.61126 12.767 12.4013 15.5989 12.4013ZM15.5989 13.9514C10.3213 13.9514 5.30119 17.9815 5.30119 21.7016C5.30119 24.8017 15.5989 24.8017 15.5989 24.8017C15.5989 24.8017 25.8966 24.8017 25.8966 21.7016C25.8966 17.9815 20.8764 13.9514 15.5989 13.9514ZM22.936 9.30125H23.3221C25.5104 9.30125 27.1838 7.28619 27.1838 4.65111C27.1838 2.01604 25.5104 0.000976562 23.3221 0.000976562C22.6785 0.000976562 22.1637 0.155981 21.6488 0.46599C22.6785 2.01604 23.3221 4.03109 23.3221 6.20116C23.3221 7.28619 23.1934 8.37122 22.936 9.30125ZM7.87561 9.30125H8.26178C8.00433 8.37122 7.87561 7.28619 7.87561 6.20116C7.87561 4.03109 8.51922 2.01604 9.54899 0.46599C9.0341 0.155981 8.51922 0.000976562 7.87561 0.000976562C5.68735 0.000976562 4.01398 2.01604 4.01398 4.65111C4.01398 7.28619 5.68735 9.30125 7.87561 9.30125Z" fill="#053688"/>
</svg>
