<svg width="33" height="24" viewBox="0 0 33 24" fill="none"
    xmlns="http://www.w3.org/2000/svg">
    <path opacity="0.587821" fill-rule="evenodd" clip-rule="evenodd" d="M7.16699 5.33333C7.16699 8.27885 9.55481 10.6667 12.5003 10.6667C15.4458 10.6667 17.8337 8.27885 17.8337 5.33333C17.8337 2.38781 15.4458 0 12.5003 0C9.55481 0 7.16699 2.38781 7.16699 5.33333ZM20.5003 10.6667C20.5003 12.8758 22.2912 14.6667 24.5003 14.6667C26.7095 14.6667 28.5003 12.8758 28.5003 10.6667C28.5003 8.45753 26.7095 6.66667 24.5003 6.66667C22.2912 6.66667 20.5003 8.45753 20.5003 10.6667Z" fill="#8280FF"/>
    <path fill-rule="evenodd" clip-rule="evenodd" d="M12.4778 13.333C6.18255 13.333 1.01768 16.5684 0.500869 22.9319C0.472718 23.2786 1.13562 23.9997 1.47 23.9997H23.4956C24.4972 23.9997 24.5128 23.1936 24.4972 22.933C24.1065 16.3906 18.8616 13.333 12.4778 13.333ZM31.7746 23.9997L26.6333 23.9997C26.6333 20.9984 25.6417 18.2288 23.9683 16.0005C28.5103 16.0501 32.2189 18.3465 32.498 23.1997C32.5092 23.3951 32.498 23.9997 31.7746 23.9997Z" fill="#8280FF"/>
</svg>
