<svg width="57" height="57" viewBox="0 0 57 57" fill="none"
    xmlns="http://www.w3.org/2000/svg">
    <path d="M28.5 0C12.7853 0 0 12.7853 0 28.5C0 44.2147 12.7853 57 28.5 57C44.2147 57 57 44.2147 57 28.5C57 12.7853 44.2147 0 28.5 0ZM28.774 13.1538C30.7252 13.1538 32.6326 13.7324 34.255 14.8165C35.8773 15.9005 37.1418 17.4412 37.8885 19.2439C38.6352 21.0466 38.8305 23.0302 38.4499 24.9439C38.0692 26.8576 37.1296 28.6154 35.7499 29.9951C34.3702 31.3748 32.6124 32.3144 30.6987 32.6951C28.785 33.0757 26.8014 32.8803 24.9987 32.1337C23.1961 31.387 21.6553 30.1225 20.5713 28.5001C19.4872 26.8778 18.9087 24.9704 18.9087 23.0192C18.9087 20.4028 19.948 17.8935 21.7982 16.0434C23.6483 14.1932 26.1576 13.1538 28.774 13.1538ZM28.5 52.6154C25.1738 52.6168 21.8835 51.9283 18.8369 50.5934C15.7903 49.2585 13.0536 47.3063 10.7999 44.8601C12.0111 38.5874 22.8904 37.2692 28.5 37.2692C34.1096 37.2692 44.9889 38.5874 46.2001 44.8587C43.9466 47.3054 41.2101 49.258 38.1635 50.5931C35.1168 51.9282 31.8263 52.6168 28.5 52.6154Z" fill="#D9D9D9"/>
</svg>
