<svg width="20" height="18" viewBox="0 0 20 18" fill="none"
    xmlns="http://www.w3.org/2000/svg">
    <path d="M16 4H4V0H16V4ZM16 9.5C16.2833 9.5 16.5207 9.404 16.712 9.212C16.904 9.02067 17 8.78333 17 8.5C17 8.21667 16.904 7.979 16.712 7.787C16.5207 7.59567 16.2833 7.5 16 7.5C15.7167 7.5 15.4793 7.59567 15.288 7.787C15.096 7.979 15 8.21667 15 8.5C15 8.78333 15.096 9.02067 15.288 9.212C15.4793 9.404 15.7167 9.5 16 9.5ZM14 16V12H6V16H14ZM16 18H4V14H0V8C0 7.15 0.291667 6.43767 0.875 5.863C1.45833 5.28767 2.16667 5 3 5H17C17.85 5 18.5627 5.28767 19.138 5.863C19.7127 6.43767 20 7.15 20 8V14H16V18Z" fill="#D3D7FB"/>
</svg>
