<svg width="49" height="54" viewBox="0 0 49 54" fill="none"
    xmlns="http://www.w3.org/2000/svg">
    <path d="M35.3327 53.1658C31.6438 53.1658 28.4998 51.8653 25.9007 49.2644C23.3016 46.6635 22.0011 43.5195 21.9993 39.8324C21.9976 36.1453 23.298 33.0013 25.9007 30.4004C28.5034 27.7995 31.6474 26.4991 35.3327 26.4991C39.018 26.4991 42.1629 27.7995 44.7673 30.4004C47.3718 33.0013 48.6713 36.1453 48.666 39.8324C48.6607 43.5195 47.3602 46.6644 44.7647 49.2671C42.1691 51.8698 39.0251 53.1693 35.3327 53.1658ZM0.666016 24.0991V11.4991C0.666016 10.388 0.988682 9.38798 1.63402 8.49909C2.27935 7.6102 3.11224 6.96575 4.13268 6.56575L20.1327 0.565755C20.7549 0.343533 21.3771 0.232422 21.9993 0.232422C22.6216 0.232422 23.2438 0.343533 23.866 0.565755L39.866 6.56575C40.8882 6.96575 41.722 7.6102 42.3674 8.49909C43.0127 9.38798 43.3345 10.388 43.3327 11.4991V19.6324C43.3327 20.388 42.9994 20.9995 42.3327 21.4671C41.666 21.9346 40.9549 22.0564 40.1994 21.8324C39.3994 21.6102 38.5993 21.444 37.7993 21.3338C36.9993 21.2235 36.1771 21.1675 35.3327 21.1658C30.1771 21.1658 25.7771 22.988 22.1327 26.6324C18.4882 30.2769 16.666 34.6769 16.666 39.8324C16.666 41.2546 16.8331 42.644 17.1673 44.0004C17.5016 45.3569 17.9789 46.7231 18.5993 48.0991C18.9993 48.9435 18.8776 49.6991 18.234 50.3658C17.5905 51.0324 16.8456 51.1658 15.9993 50.7658C14.1327 49.788 12.4216 48.588 10.866 47.1658C9.31046 45.7435 7.93268 44.188 6.73268 42.4991C4.82157 39.8769 3.33268 36.9986 2.26602 33.8644C1.19935 30.7302 0.666016 27.4751 0.666016 24.0991ZM35.3327 39.8324C36.4438 39.8324 37.3887 39.444 38.1674 38.6671C38.946 37.8902 39.3345 36.9453 39.3327 35.8324C39.3309 34.7195 38.9425 33.7755 38.1674 33.0004C37.3922 32.2253 36.4473 31.836 35.3327 31.8324C34.218 31.8289 33.274 32.2182 32.5007 33.0004C31.7273 33.7826 31.338 34.7266 31.3327 35.8324C31.3274 36.9382 31.7167 37.8831 32.5007 38.6671C33.2847 39.4511 34.2287 39.8395 35.3327 39.8324ZM35.3327 47.8324C36.4438 47.8324 37.4882 47.6209 38.466 47.1978C39.4438 46.7746 40.3105 46.164 41.066 45.3658C41.2882 45.0991 41.3771 44.7995 41.3327 44.4671C41.2882 44.1346 41.0882 43.8786 40.7327 43.6991C39.8882 43.2991 39.0109 42.9995 38.1007 42.8004C37.1905 42.6013 36.2678 42.5009 35.3327 42.4991C34.3976 42.4973 33.4758 42.5978 32.5674 42.8004C31.6589 43.0031 30.7807 43.3026 29.9327 43.6991C29.5771 43.8769 29.3771 44.1329 29.3327 44.4671C29.2882 44.8013 29.3771 45.1009 29.5993 45.3658C30.3549 46.1658 31.2216 46.7773 32.1993 47.2004C33.1771 47.6235 34.2216 47.8342 35.3327 47.8324Z" fill="white"/>
</svg>
