<svg width="60" height="61" viewBox="0 0 60 61" fill="none" xmlns="http://www.w3.org/2000/svg">
<path opacity="0.21" fill-rule="evenodd" clip-rule="evenodd" d="M0 30.4648V37.4648C0 50.1674 10.2975 60.4648 23 60.4648H30H37C49.7025 60.4648 60 50.1674 60 37.4648V30.4648V23.4648C60 10.7623 49.7025 0.464844 37 0.464844H30H23C10.2975 0.464844 0 10.7623 0 23.4648V30.4648Z" fill="#8280FF"/>
<path opacity="0.587821" fill-rule="evenodd" clip-rule="evenodd" d="M20.666 23.7982C20.666 26.7437 23.0538 29.1315 25.9993 29.1315C28.9449 29.1315 31.3327 26.7437 31.3327 23.7982C31.3327 20.8527 28.9449 18.4648 25.9993 18.4648C23.0538 18.4648 20.666 20.8527 20.666 23.7982ZM33.9993 29.1315C33.9993 31.3406 35.7902 33.1315 37.9993 33.1315C40.2085 33.1315 41.9993 31.3406 41.9993 29.1315C41.9993 26.9224 40.2085 25.1315 37.9993 25.1315C35.7902 25.1315 33.9993 26.9224 33.9993 29.1315Z" fill="#8280FF"/>
<path fill-rule="evenodd" clip-rule="evenodd" d="M25.9778 31.7979C19.6826 31.7979 14.5177 35.0332 14.0009 41.3968C13.9727 41.7434 14.6356 42.4645 14.97 42.4645H36.9956C37.9972 42.4645 38.0128 41.6585 37.9972 41.3979C37.6065 34.8554 32.3616 31.7979 25.9778 31.7979ZM45.2746 42.4645L40.1333 42.4645C40.1333 39.4633 39.1417 36.6936 37.4683 34.4653C42.0103 34.515 45.7189 36.8114 45.998 41.6645C46.0092 41.86 45.998 42.4645 45.2746 42.4645Z" fill="#8280FF"/>
</svg>
