<svg width="24" height="25" viewBox="0 0 24 25" fill="none" xmlns="http://www.w3.org/2000/svg">
<g clip-path="url(#clip0_1638_3901)">
<path d="M18.75 4.25H18.6225V5.75H18.75C18.9489 5.75 19.1397 5.82902 19.2803 5.96967C19.421 6.11032 19.5 6.30109 19.5 6.5V21.5C19.5 21.6989 19.421 21.8897 19.2803 22.0303C19.1397 22.171 18.9489 22.25 18.75 22.25H5.25C5.05109 22.25 4.86032 22.171 4.71967 22.0303C4.57902 21.8897 4.5 21.6989 4.5 21.5V6.5C4.5 6.30109 4.57902 6.11032 4.71967 5.96967C4.86032 5.82902 5.05109 5.75 5.25 5.75H5.3775V4.25H5.25C4.65326 4.25 4.08097 4.48705 3.65901 4.90901C3.23705 5.33097 3 5.90326 3 6.5V21.5C3 22.0967 3.23705 22.669 3.65901 23.091C4.08097 23.5129 4.65326 23.75 5.25 23.75H18.75C19.3467 23.75 19.919 23.5129 20.341 23.091C20.7629 22.669 21 22.0967 21 21.5V6.5C21 5.90326 20.7629 5.33097 20.341 4.90901C19.919 4.48705 19.3467 4.25 18.75 4.25Z" fill="black"/>
<path d="M17.25 2.75H15V0.5H9V2.75H6.75V7.25H17.25V2.75ZM15.75 5.75H8.25V4.25H10.5V2H13.5V4.25H15.75V5.75Z" fill="black"/>
<path d="M7.5 10.25H16.5V11.75H7.5V10.25ZM7.5 14H16.5V15.5H7.5V14ZM7.5 17.75H16.5V19.25H7.5V17.75Z" fill="black"/>
</g>
<defs>
<clipPath id="clip0_1638_3901">
<rect width="24" height="24" fill="white" transform="translate(0 0.5)"/>
</clipPath>
</defs>
</svg>
