<svg width="24" height="25" viewBox="0 0 24 25" fill="none" xmlns="http://www.w3.org/2000/svg">
<path opacity="0.4" d="M2 13.7371V11.9771C2 10.9371 2.85 10.0771 3.9 10.0771C5.71 10.0771 6.45 8.79714 5.54 7.22714C5.02 6.32714 5.33 5.15714 6.24 4.63714L7.97 3.64714C8.76 3.17714 9.78 3.45714 10.25 4.24714L10.36 4.43714C11.26 6.00714 12.74 6.00714 13.65 4.43714L13.76 4.24714C14.23 3.45714 15.25 3.17714 16.04 3.64714L17.77 4.63714C18.68 5.15714 18.99 6.32714 18.47 7.22714C17.56 8.79714 18.3 10.0771 20.11 10.0771C21.15 10.0771 22.01 10.9271 22.01 11.9771V13.7371C22.01 14.7771 21.16 15.6371 20.11 15.6371C18.3 15.6371 17.56 16.9171 18.47 18.4871C18.99 19.3971 18.68 20.5571 17.77 21.0771L16.04 22.0671C15.25 22.5371 14.23 22.2571 13.76 21.4671L13.65 21.2771C12.75 19.7071 11.27 19.7071 10.36 21.2771L10.25 21.4671C9.78 22.2571 8.76 22.5371 7.97 22.0671L6.24 21.0771C5.33 20.5571 5.02 19.3871 5.54 18.4871C6.45 16.9171 5.71 15.6371 3.9 15.6371C2.85 15.6371 2 14.7771 2 13.7371Z" fill="#0F0F0F"/>
<path d="M12 16.1071C13.7949 16.1071 15.25 14.6521 15.25 12.8571C15.25 11.0622 13.7949 9.60715 12 9.60715C10.2051 9.60715 8.75 11.0622 8.75 12.8571C8.75 14.6521 10.2051 16.1071 12 16.1071Z" fill="#0F0F0F"/>
</svg>
