<svg width="22" height="19" viewBox="0 0 22 19" fill="none" xmlns="http://www.w3.org/2000/svg">
<path d="M8.003 3.49993C8.003 2.70508 8.31875 1.94278 8.8808 1.38073C9.44285 0.818684 10.2051 0.50293 11 0.50293C11.7949 0.50293 12.5572 0.818684 13.1192 1.38073C13.6812 1.94278 13.997 2.70508 13.997 3.49993C13.997 4.29478 13.6812 5.05708 13.1192 5.61913C12.5572 6.18118 11.7949 6.49693 11 6.49693C10.2051 6.49693 9.44285 6.18118 8.8808 5.61913C8.31875 5.05708 8.003 4.29478 8.003 3.49993ZM11 2.00293C10.8034 2.00293 10.6087 2.04165 10.4271 2.11688C10.2455 2.19211 10.0805 2.30238 9.94146 2.44139C9.80245 2.5804 9.69218 2.74543 9.61695 2.92705C9.54172 3.10868 9.503 3.30334 9.503 3.49993C9.503 3.69652 9.54172 3.89118 9.61695 4.07281C9.69218 4.25443 9.80245 4.41946 9.94146 4.55847C10.0805 4.69748 10.2455 4.80775 10.4271 4.88298C10.6087 4.95821 10.8034 4.99693 11 4.99693C11.397 4.99693 11.7778 4.83921 12.0585 4.55847C12.3393 4.27773 12.497 3.89696 12.497 3.49993C12.497 3.1029 12.3393 2.72213 12.0585 2.44139C11.7778 2.16065 11.397 2.00293 11 2.00293ZM15.5 4.24993C15.5 3.95446 15.5582 3.66187 15.6713 3.38889C15.7843 3.11591 15.9501 2.86787 16.159 2.65894C16.3679 2.45001 16.616 2.28427 16.889 2.1712C17.1619 2.05813 17.4545 1.99993 17.75 1.99993C18.0455 1.99993 18.3381 2.05813 18.611 2.1712C18.884 2.28427 19.1321 2.45001 19.341 2.65894C19.5499 2.86787 19.7157 3.11591 19.8287 3.38889C19.9418 3.66187 20 3.95446 20 4.24993C20 4.84667 19.7629 5.41896 19.341 5.84092C18.919 6.26288 18.3467 6.49993 17.75 6.49993C17.1533 6.49993 16.581 6.26288 16.159 5.84092C15.7371 5.41896 15.5 4.84667 15.5 4.24993ZM17.75 3.49993C17.5511 3.49993 17.3603 3.57895 17.2197 3.7196C17.079 3.86025 17 4.05102 17 4.24993C17 4.44884 17.079 4.63961 17.2197 4.78026C17.3603 4.92091 17.5511 4.99993 17.75 4.99993C17.9489 4.99993 18.1397 4.92091 18.2803 4.78026C18.421 4.63961 18.5 4.44884 18.5 4.24993C18.5 4.05102 18.421 3.86025 18.2803 3.7196C18.1397 3.57895 17.9489 3.49993 17.75 3.49993ZM4.25 1.99993C3.65326 1.99993 3.08097 2.23698 2.65901 2.65894C2.23705 3.0809 2 3.65319 2 4.24993C2 4.84667 2.23705 5.41896 2.65901 5.84092C3.08097 6.26288 3.65326 6.49993 4.25 6.49993C4.84674 6.49993 5.41903 6.26288 5.84099 5.84092C6.26295 5.41896 6.5 4.84667 6.5 4.24993C6.5 3.65319 6.26295 3.0809 5.84099 2.65894C5.41903 2.23698 4.84674 1.99993 4.25 1.99993ZM3.5 4.24993C3.5 4.05102 3.57902 3.86025 3.71967 3.7196C3.86032 3.57895 4.05109 3.49993 4.25 3.49993C4.44891 3.49993 4.63968 3.57895 4.78033 3.7196C4.92098 3.86025 5 4.05102 5 4.24993C5 4.44884 4.92098 4.63961 4.78033 4.78026C4.63968 4.92091 4.44891 4.99993 4.25 4.99993C4.05109 4.99993 3.86032 4.92091 3.71967 4.78026C3.57902 4.63961 3.5 4.44884 3.5 4.24993ZM5.402 7.99993C5.13867 8.45598 5.00002 8.97331 5 9.49993H2V13.2499C1.99988 13.623 2.09254 13.9903 2.26965 14.3187C2.44676 14.6471 2.70275 14.9263 3.01458 15.1312C3.32641 15.336 3.6843 15.4601 4.05601 15.4923C4.42773 15.5245 4.80161 15.4637 5.144 15.3154C5.255 15.8119 5.429 16.2859 5.654 16.7284C5.0847 16.9583 4.46766 17.0449 3.85708 16.9805C3.24651 16.9162 2.66106 16.7029 2.15216 16.3595C1.64326 16.016 1.22648 15.5529 0.938409 15.0107C0.650339 14.4685 0.499796 13.8639 0.5 13.2499V9.49993C0.5 9.10211 0.658035 8.72057 0.93934 8.43927C1.22064 8.15797 1.60218 7.99993 2 7.99993H5.402ZM16.346 16.7284C16.9153 16.9583 17.5323 17.0449 18.1429 16.9805C18.7535 16.9162 19.3389 16.7029 19.8478 16.3595C20.3567 16.016 20.7735 15.5529 21.0616 15.0107C21.3497 14.4685 21.5002 13.8639 21.5 13.2499V9.49993C21.5 9.10211 21.342 8.72057 21.0607 8.43927C20.7794 8.15797 20.3978 7.99993 20 7.99993H16.598C16.853 8.44093 17 8.95243 17 9.49993H20V13.2499C20.0001 13.623 19.9075 13.9903 19.7304 14.3187C19.5532 14.6471 19.2973 14.9263 18.9854 15.1312C18.6736 15.336 18.3157 15.4601 17.944 15.4923C17.5723 15.5245 17.1984 15.4637 16.856 15.3154C16.742 15.8134 16.572 16.2844 16.346 16.7284ZM8 7.99843C7.60218 7.99843 7.22064 8.15647 6.93934 8.43777C6.65804 8.71907 6.5 9.10061 6.5 9.49843V13.9999C6.5 15.1934 6.97411 16.338 7.81802 17.1819C8.66193 18.0258 9.80653 18.4999 11 18.4999C12.1935 18.4999 13.3381 18.0258 14.182 17.1819C15.0259 16.338 15.5 15.1934 15.5 13.9999V9.49993C15.5 9.10211 15.342 8.72057 15.0607 8.43927C14.7794 8.15797 14.3978 7.99993 14 7.99993L8 7.99843ZM8 9.49843H14V13.9999C14 14.7956 13.6839 15.5586 13.1213 16.1213C12.5587 16.6839 11.7956 16.9999 11 16.9999C10.2044 16.9999 9.44129 16.6839 8.87868 16.1213C8.31607 15.5586 8 14.7956 8 13.9999V9.49843Z" fill="black"/>
</svg>
