<svg width="18" height="22" viewBox="0 0 18 22" fill="none"
    xmlns="http://www.w3.org/2000/svg">
    <path d="M8.99972 0.84668C11.2162 0.84668 13.3418 1.72716 14.9091 3.29443C16.4764 4.8617 17.3569 6.98737 17.3569 9.20382C17.3569 12.7353 14.8754 16.5838 9.97686 20.7907C9.70448 21.0247 9.3572 21.1532 8.99812 21.1529C8.63903 21.1525 8.29198 21.0234 8.02001 20.789L7.69601 20.5078C3.01429 16.4107 0.642578 12.6564 0.642578 9.20382C0.642578 6.98737 1.52306 4.8617 3.09033 3.29443C4.6576 1.72716 6.78327 0.84668 8.99972 0.84668ZM8.99972 2.13239C7.12426 2.13239 5.32562 2.87742 3.99947 4.20357C2.67332 5.52972 1.92829 7.32836 1.92829 9.20382C1.92829 12.2055 4.11229 15.6641 8.54029 19.5384L8.86001 19.8153C8.89888 19.8487 8.94845 19.8671 8.99972 19.8671C9.05099 19.8671 9.10056 19.8487 9.13944 19.8153C13.7817 15.8278 16.0712 12.2767 16.0712 9.20382C16.0712 8.27519 15.8882 7.35565 15.5329 6.4977C15.1775 5.63976 14.6566 4.86021 14 4.20357C13.3433 3.54692 12.5638 3.02605 11.7058 2.67067C10.8479 2.3153 9.92836 2.13239 8.99972 2.13239ZM8.99972 5.98954C9.8522 5.98954 10.6698 6.32818 11.2726 6.93098C11.8754 7.53377 12.214 8.35134 12.214 9.20382C12.214 10.0563 11.8754 10.8739 11.2726 11.4767C10.6698 12.0795 9.8522 12.4181 8.99972 12.4181C8.14724 12.4181 7.32967 12.0795 6.72688 11.4767C6.12408 10.8739 5.78544 10.0563 5.78544 9.20382C5.78544 8.35134 6.12408 7.53377 6.72688 6.93098C7.32967 6.32818 8.14724 5.98954 8.99972 5.98954ZM8.99972 7.27525C8.48823 7.27525 7.99769 7.47844 7.63602 7.84012C7.27434 8.20179 7.07115 8.69233 7.07115 9.20382C7.07115 9.71531 7.27434 10.2059 7.63602 10.5675C7.99769 10.9292 8.48823 11.1324 8.99972 11.1324C9.51121 11.1324 10.0017 10.9292 10.3634 10.5675C10.7251 10.2059 10.9283 9.71531 10.9283 9.20382C10.9283 8.69233 10.7251 8.20179 10.3634 7.84012C10.0017 7.47844 9.51121 7.27525 8.99972 7.27525Z" fill="#667085"/>
</svg>
