<svg width="24" height="25" viewBox="0 0 24 25" fill="none" xmlns="http://www.w3.org/2000/svg">
<path d="M19 16.5C17.8 16.5 16.7417 16.125 15.825 15.375C14.9083 14.625 14.3333 13.6667 14.1 12.5H11.125L9.925 10.5H14.1C14.1833 10.1333 14.296 9.78333 14.438 9.45C14.58 9.11667 14.7673 8.8 15 8.5H8.7L7.5 6.5H16.05L14.95 3.5H11V1.5H16.35L18.175 6.5H19C20.3833 6.5 21.5627 6.98767 22.538 7.963C23.5133 8.93833 24.0007 10.1173 24 11.5C23.9993 12.8827 23.5117 14.062 22.537 15.038C21.5623 16.014 20.3833 16.5013 19 16.5ZM19 14.5C19.8333 14.5 20.5417 14.2083 21.125 13.625C21.7083 13.0417 22 12.3333 22 11.5C22 10.6667 21.7083 9.95833 21.125 9.375C20.5417 8.79167 19.8333 8.5 19 8.5H18.925L19.9 11.175L18 11.85L17.05 9.225C16.7167 9.50833 16.4583 9.85 16.275 10.25C16.0917 10.65 16 11.0667 16 11.5C16 12.3333 16.2917 13.0417 16.875 13.625C17.4583 14.2083 18.1667 14.5 19 14.5ZM7 23.5C6.16667 23.5 5.45833 23.2083 4.875 22.625C4.29167 22.0417 4 21.3333 4 20.5H0V18.5H4.775C5.025 18.25 5.34167 18.021 5.725 17.813C6.10833 17.605 6.53333 17.5007 7 17.5C7.41667 17.5 7.81667 17.5833 8.2 17.75C8.58333 17.9167 8.925 18.1667 9.225 18.5H12V16.5H0V14.5H2V11.5H0V9.5H7L10 14.5H14V20.5H10C10 21.3333 9.70833 22.0417 9.125 22.625C8.54167 23.2083 7.83333 23.5 7 23.5ZM4 14.5H7.675L5.875 11.5H4V14.5ZM7 21.5C7.28333 21.5 7.521 21.404 7.713 21.212C7.905 21.02 8.00067 20.7827 8 20.5C7.99933 20.2173 7.90333 19.98 7.712 19.788C7.52067 19.596 7.28333 19.5 7 19.5C6.71667 19.5 6.47933 19.596 6.288 19.788C6.09667 19.98 6.00067 20.2173 6 20.5C5.99933 20.7827 6.09533 21.0203 6.288 21.213C6.48067 21.4057 6.718 21.5013 7 21.5Z" fill="black"/>
</svg>
