<svg width="60" height="61" viewBox="0 0 60 61" fill="none" xmlns="http://www.w3.org/2000/svg">
<path opacity="0.21" fill-rule="evenodd" clip-rule="evenodd" d="M0 30.4648V37.4648C0 50.1674 10.2975 60.4648 23 60.4648H30H37C49.7025 60.4648 60 50.1674 60 37.4648V30.4648V23.4648C60 10.7623 49.7025 0.464844 37 0.464844H30H23C10.2975 0.464844 0 10.7623 0 23.4648V30.4648Z" fill="#4AD991"/>
<path d="M19.1111 41.3537H42.4444C43.3036 41.3537 44 42.0502 44 42.9093C44 43.7684 43.3036 44.4648 42.4444 44.4648H17.5556C16.6964 44.4648 16 43.7684 16 42.9093V18.0204C16 17.1613 16.6964 16.4648 17.5556 16.4648C18.4147 16.4648 19.1111 17.1613 19.1111 18.0204V41.3537Z" fill="#4AD991"/>
<path opacity="0.5" d="M24.9131 34.6398C24.3255 35.2666 23.3411 35.2983 22.7143 34.7107C22.0876 34.1232 22.0558 33.1388 22.6434 32.512L28.4767 26.2898C29.045 25.6836 29.9893 25.6311 30.6213 26.1704L35.2253 30.0992L41.224 22.5009C41.7563 21.8266 42.7345 21.7115 43.4088 22.2439C44.0831 22.7762 44.1982 23.7544 43.6658 24.4287L36.6658 33.2954C36.1191 33.9879 35.1063 34.0875 34.4351 33.5148L29.7311 29.5006L24.9131 34.6398Z" fill="#4AD991"/>
</svg>
