<svg width="57" height="56" viewBox="0 0 57 56" fill="none" xmlns="http://www.w3.org/2000/svg">
<circle cx="28.5" cy="28" r="28" fill="#F0F2F5"/>
<path d="M21.5003 25.0833C21.5003 21.5394 24.3732 18.6666 27.917 18.6666C31.0562 18.6666 33.671 20.922 34.2252 23.901C34.3029 24.3188 34.6016 24.6613 35.0049 24.795C37.3275 25.5653 39.0003 27.7554 39.0003 30.3333C39.0003 33.5549 36.3887 36.1666 33.167 36.1666C32.5227 36.1666 32.0003 36.6889 32.0003 37.3333C32.0003 37.9776 32.5227 38.4999 33.167 38.4999C37.6773 38.4999 41.3337 34.8436 41.3337 30.3333C41.3337 26.9587 39.2876 24.0647 36.371 22.8194C35.373 19.0843 31.9674 16.3333 27.917 16.3333C23.0845 16.3333 19.167 20.2508 19.167 25.0833C19.167 25.2002 19.1693 25.3168 19.1739 25.4327C17.0792 26.6412 15.667 28.9046 15.667 31.4999C15.667 35.3659 18.801 38.4999 22.667 38.4999C23.3113 38.4999 23.8337 37.9776 23.8337 37.3333C23.8337 36.6889 23.3113 36.1666 22.667 36.1666C20.0897 36.1666 18.0003 34.0772 18.0003 31.4999C18.0003 29.5664 19.1765 27.9048 20.8571 27.1969C21.3434 26.992 21.6316 26.4862 21.5601 25.9634C21.5207 25.6762 21.5003 25.3824 21.5003 25.0833Z" fill="#475367"/>
<path d="M27.7252 30.6279C28.1673 30.235 28.8334 30.235 29.2754 30.6279L31.0254 32.1835C31.507 32.6116 31.5504 33.349 31.1223 33.8306C30.7478 34.2519 30.1366 34.3378 29.667 34.0661V39.6666C29.667 40.3109 29.1447 40.8333 28.5003 40.8333C27.856 40.8333 27.3337 40.3109 27.3337 39.6666V34.0661C26.8641 34.3378 26.2528 34.2519 25.8783 33.8306C25.4503 33.349 25.4937 32.6116 25.9752 32.1835L27.7252 30.6279Z" fill="#475367"/>
</svg>
