<svg width="28" height="24" viewBox="0 0 28 24" fill="none"
    xmlns="http://www.w3.org/2000/svg">
    <path d="M17.7346 2.15048L26.6693 17.0318C27.9533 19.1691 27.3226 21.9811 25.26 23.3118C24.5681 23.761 23.7609 24 22.936 23.9998H5.0653C2.6373 23.9998 0.667969 21.9598 0.667969 19.4411C0.667969 18.5891 0.898635 17.7558 1.33197 17.0318L10.268 2.15048C11.5506 0.0131445 14.2626 -0.641522 16.3253 0.689144C16.896 1.05714 17.3786 1.55714 17.7346 2.15048ZM14.7746 3.26914C14.6114 3.16415 14.4286 3.09334 14.2372 3.06098C14.0459 3.02862 13.8499 3.03539 13.6612 3.08088C13.4726 3.12636 13.2951 3.20962 13.1395 3.32563C12.9839 3.44163 12.8534 3.58797 12.756 3.75581L3.8213 18.6398C3.67617 18.8824 3.59966 19.1598 3.59997 19.4425C3.59997 20.2825 4.25597 20.9625 5.06664 20.9625H22.9346C23.2093 20.9625 23.4773 20.8825 23.7093 20.7331C24.0422 20.512 24.277 20.1709 24.3646 19.7809C24.4523 19.391 24.3862 18.9822 24.18 18.6398L15.2453 3.75581C15.1289 3.55925 14.9682 3.3926 14.776 3.26914H14.7746ZM14.0013 18.6665C13.6477 18.6665 13.3085 18.526 13.0585 18.276C12.8084 18.0259 12.668 17.6868 12.668 17.3331C12.668 16.9795 12.8084 16.6404 13.0585 16.3903C13.3085 16.1403 13.6477 15.9998 14.0013 15.9998C14.3549 15.9998 14.6941 16.1403 14.9441 16.3903C15.1942 16.6404 15.3346 16.9795 15.3346 17.3331C15.3346 17.6868 15.1942 18.0259 14.9441 18.276C14.6941 18.526 14.3549 18.6665 14.0013 18.6665ZM14.0013 6.66648C14.3549 6.66648 14.6941 6.80695 14.9441 7.057C15.1942 7.30705 15.3346 7.64619 15.3346 7.99981V13.3331C15.3346 13.6868 15.1942 14.0259 14.9441 14.276C14.6941 14.526 14.3549 14.6665 14.0013 14.6665C13.6477 14.6665 13.3085 14.526 13.0585 14.276C12.8084 14.0259 12.668 13.6868 12.668 13.3331V7.99981C12.668 7.64619 12.8084 7.30705 13.0585 7.057C13.3085 6.80695 13.6477 6.66648 14.0013 6.66648Z" fill="black" fill-opacity="0.7"/>
</svg>
